# xmcd
#
# Track frame offsets: 
#        150
#        5687
#        19222
#        31937
#        50875
#        58350
#        86775
#        122350
#        136950
#        147070
#        154635
#        178380
#        194985
#        213550
#        219182
#        234612
#
# Disc length: 3229 seconds
#
# Revision: 13
# Processed by: cddbd v1.5.2PL0 Copyright (c) Steve Scherf et al.
# Submitted via: ExactAudioCopyFreeDBPlugin 1.0
#
DISCID=f30c9b10
DTITLE=Pink Floyd - 2000 - Pink Floyd - Is There Anybody Out There? - 
DTITLE=CD1
DYEAR=2000
DGENRE=Rock
TTITLE0=MC: Atmos
TTITLE1=In The Flesh?
TTITLE2=The Thin Ice
TTITLE3=Another Brick In The Wall - Part 1
TTITLE4=The Happiest Days Of Our Lives
TTITLE5=Another Brick In The Wall - Part 2
TTITLE6=Mother
TTITLE7=Goodbye Blue Sky
TTITLE8=Empty Spaces
TTITLE9=What Shall We Do Now?
TTITLE10=Young Lust
TTITLE11=One Of My Turns
TTITLE12=Don't Leave Me Now
TTITLE13=Another Brick In The Wall - Part 3
TTITLE14=The Last Few Bricks
TTITLE15=Goodbye Cruel World
EXTD=James Guthrie
EXTT0=Yudman
EXTT1=Roger Waters
EXTT2=Roger Waters
EXTT3=Roger Waters
EXTT4=Roger Waters
EXTT5=Roger Waters
EXTT6=Roger Waters
EXTT7=Roger Waters
EXTT8=Roger Waters
EXTT9=Roger Waters
EXTT10=Waters, Gilmour
EXTT11=Roger Waters
EXTT12=Roger Waters
EXTT13=Roger Waters
EXTT14=Roger Waters
EXTT15=Roger Waters
PLAYORDER=
